# xmcd
#
# Track frame offsets:
#	150
#	17190
#	31426
#	45918
#	60557
#	74547
#	84449
#	97402
#	128057
#
# Disc length: 1918 seconds
#
# Revision: 0
# Processed by: cddbd v1.5.2PL0 Copyright (c) Steve Scherf et al.
# Submitted via: FairStars CD Ripper 1.90
#
DISCID=76077c09
DTITLE=Vaudevillian - Salty Dog
DYEAR=2014
DGENRE=Blues
TTITLE0=Salty Dog
TTITLE1=What My Baby Likes
TTITLE2=The Etobicoke Blues
TTITLE3=Let's Get Drunk Again
TTITLE4=Lazy River
TTITLE5=The Steel City Stomp
TTITLE6=Spit Shine
TTITLE7=Bringin' Satan Down
TTITLE8=I Once Loved A Sailor
EXTD=
EXTT0=
EXTT1=
EXTT2=
EXTT3=
EXTT4=
EXTT5=
EXTT6=
EXTT7=
EXTT8=
PLAYORDER=
